#!OML:ASF E:\emotionWalksFemale\Project 1\Capture day 1\Session 1\Female1.ASF
:FULLY-SPECIFIED
:DEGREES
118
root 8.82355 15.1492 42.262 179.428 -9.68374 -178.067
lowerback 7.45889 2.77504 3.56093
upperback -4.55375 4.04608 -0.108789
thorax -8.75873 1.71874 -2.70039
lowerneck -0.525823 17.774 10.3536
upperneck 4.63742 23.8848 -6.6164
head 3.45824 11.8989 -2.34341
rclavicle -6.31266e-014 -1.49089e-014
rhumerus -47.7253 12.5649 -96.378
rradius 36.5024
rwrist 19.7738
rhand -12.247 -61.5657
rfingers 7.12502
rthumb -166.181 -88.9133
lclavicle -6.31266e-014 -1.49089e-014
lhumerus -42.3076 -8.8892 91.2455
lradius 36.8993
lwrist -19.9243
lhand -2.64762 -27.4969
lfingers 7.12502
lthumb 23.0521 1.14433
rfemur -4.69132 18.0845 29.505
rtibia 25.4585
rfoot -27.3533 -36.9219
rtoes 23.7633
lfemur -12.2589 -25.4027 -20.9505
ltibia 32.1167
lfoot -24.0798 13.7424
ltoes -27.4234
119
root 8.8239 15.1501 42.2611 179.456 -9.6935 -178.033
lowerback 7.4876 2.78887 3.58962
upperback -4.60914 4.0691 -0.096355
thorax -8.83357 1.72453 -2.71009
lowerneck -0.551831 17.766 10.3208
upperneck 4.73742 23.8709 -6.54164
head 3.47888 11.8923 -2.31417
rclavicle 2.53326e-014 9.74045e-015
rhumerus -47.8017 12.42 -96.3557
rradius 36.537
rwrist 19.9947
rhand -12.2191 -61.5111
rfingers 7.12502
rthumb -166.154 -88.9698
lclavicle 2.53326e-014 9.74045e-015
lhumerus -42.3807 -8.98737 91.3058
lradius 37.0038
lwrist -19.6908
lhand -3.17187 -26.5004
lfingers 7.12502
lthumb 22.549 2.20285
rfemur -4.73471 17.9935 29.5114
rtibia 25.4506
rfoot -27.2126 -36.8068
rtoes 23.7694
lfemur -12.2989 -25.3709 -20.8904
ltibia 32.1091
lfoot -24.1854 13.6126
ltoes -26.6551
120
root 8.82588 15.1515 42.2617 179.415 -9.72472 -177.926
lowerback 7.51253 2.78338 3.66984
upperback -4.60204 4.07419 -0.0684195
thorax -8.83709 1.72304 -2.72716
lowerneck -0.588516 17.7713 10.3444
upperneck 4.77543 23.8738 -6.50772
head 3.49485 11.894 -2.30191
rclavicle -1.34304e-014 -3.97569e-015
rhumerus -47.7912 12.3259 -96.3738
rradius 36.5649
rwrist 20.2111
rhand -11.9222 -61.8752
rfingers 7.12502
rthumb -165.868 -88.6255
lclavicle -1.34304e-014 -3.97569e-015
lhumerus -42.4703 -9.18193 91.3746
lradius 37.0474
lwrist -19.8087
lhand -2.25645 -26.5609
lfingers 7.12502
lthumb 23.4274 2.03294
rfemur -4.68644 18.1327 29.6769
rtibia 25.429
rfoot -27.283 -37.0319
rtoes 24.0328
lfemur -12.2921 -25.3753 -20.768
ltibia 32.1221
lfoot -24.2141 13.5689
ltoes -26.5106
121
root 8.8267 15.1528 42.2613 179.376 -9.72581 -177.865
lowerback 7.50837 2.768 3.71906
upperback -4.58077 4.06084 -0.0445071
thorax -8.81098 1.71565 -2.72634
lowerneck -0.581773 17.7759 10.3931
upperneck 4.74819 23.8812 -6.54322
head 3.49594 11.8979 -2.31737
rclavicle 4.88389e-014 -6.95746e-015
rhumerus -47.7964 12.4395 -96.4929
rradius 36.6009
rwrist 20.1991
rhand -11.6285 -62.3236
rfingers 7.12502
rthumb -165.585 -88.197
lclavicle 4.88389e-014 -6.95746e-015
lhumerus -42.4527 -9.20455 91.3809
lradius 36.9532
lwrist -20.0316
lhand -4.413 -26.3738
lfingers 7.12502
lthumb 21.3573 2.46918
rfemur -4.62612 18.231 29.7917
rtibia 25.4033
rfoot -27.3318 -37.1956
rtoes 24.1837
lfemur -12.2711 -25.365 -20.7117
ltibia 32.1543
lfoot -24.2037 13.6172
ltoes -26.4875
122
root 8.82438 15.1503 42.2597 179.328 -9.65503 -177.879
lowerback 7.53904 2.77257 3.72365
upperback -4.56844 4.07051 -0.0276542
thorax -8.81586 1.72085 -2.7139
lowerneck -0.578019 17.7877 10.3782
upperneck 4.76428 23.899 -6.55245
head 3.50116 11.906 -2.31607
rclavicle 3.58309e-014 1.39149e-015
rhumerus -47.8159 12.5779 -96.6139
rradius 36.5955
rwrist 20.1632
rhand -11.4988 -62.7806
rfingers 7.12502
rthumb -165.46 -87.7489
lclavicle 3.58309e-014 1.39149e-015
lhumerus -42.3866 -9.04089 91.3457
lradius 36.8314
lwrist -20.1745
lhand -3.30891 -27.299
lfingers 7.12502
lthumb 22.4175 1.42017
rfemur -4.56441 18.1479 29.7651
rtibia 25.3736
rfoot -27.1983 -37.0512
rtoes 23.9582
lfemur -12.2094 -25.3614 -20.7799
ltibia 32.2057
lfoot -23.988 13.9551
ltoes -27.6069
123
root 8.82186 15.1468 42.2604 179.345 -9.53922 -177.923
lowerback 7.57454 2.80337 3.68151
upperback -4.59787 4.10925 -0.0159869
thorax -8.86981 1.74007 -2.68678
lowerneck -0.579937 17.813 10.354
upperneck 4.86351 23.9337 -6.50829
head 3.52644 11.9231 -2.29335
rclavicle 6.72762e-014 1.23246e-014
rhumerus -47.8182 12.6629 -96.6925
rradius 36.5128
rwrist 20.1695
rhand -11.7455 -62.6999
rfingers 7.12502
rthumb -165.698 -87.8127
lclavicle 6.72762e-014 1.23246e-014
lhumerus -42.4374 -8.98483 91.3721
lradius 36.8135
lwrist -20.2381
lhand -4.68635 -27.3872
lfingers 7.12502
lthumb 21.0947 1.48531
rfemur -4.59783 18.0817 29.6728
rtibia 25.3539
rfoot -26.8527 -37.0164
rtoes 23.1659
lfemur -12.2214 -25.4019 -20.8454
ltibia 32.2429
lfoot -23.8066 14.2348
ltoes -29.4577
124
root 8.82586 15.1412 42.2548 179.232 -9.75754 -177.946
lowerback 7.5891 2.72344 3.59519
upperback -4.56313 3.99475 -0.00172211
thorax -8.85474 1.6918 -2.60726
lowerneck -0.546941 17.8168 10.383
upperneck 4.87944 23.9421 -6.52059
head 3.53174 11.9279 -2.3009
rclavicle -5.90142e-016 3.97569e-015
rhumerus -47.8229 12.5927 -96.729
rradius 36.4657
rwrist 20.2968
rhand -12.2418 -62.1952
rfingers 7.12502
rthumb -166.176 -88.2841
lclavicle -5.90142e-016 3.97569e-015
lhumerus -42.4657 -9.03516 91.3975
lradius 36.7474
lwrist -20.2942
lhand -3.86624 -28.0922
lfingers 7.12502
lthumb 21.8824 0.690447
rfemur -4.37834 18.2696 29.7925
rtibia 25.3395
rfoot -27.0512 -37.4149
rtoes 23.2109
lfemur -12.0997 -25.5054 -20.9026
ltibia 32.2727
lfoot -23.9844 13.9421
ltoes -28.642
125
root 8.82171 15.1459 42.2588 179.375 -9.52527 -177.919
lowerback 7.51592 2.80453 3.73432
upperback -4.61983 4.1117 -0.0348225
thorax -8.85426 1.73702 -2.73347
lowerneck -0.529926 17.7818 10.3815
upperneck 4.80535 23.8953 -6.54055
head 3.505 11.9052 -2.31604
rclavicle 2.94326e-014 -8.94531e-016
rhumerus -47.8297 12.3945 -96.7084
rradius 36.5477
rwrist 20.4284
rhand -12.4613 -61.9697
rfingers 7.12502
rthumb -166.388 -88.4954
lclavicle 2.94326e-014 -8.94531e-016
lhumerus -42.4457 -9.15717 91.427
lradius 36.7224
lwrist -20.082
lhand -4.91959 -27.9536
lfingers 7.12502
lthumb 20.8707 0.943732
rfemur -4.62137 18.1503 29.6754
rtibia 25.3371
rfoot -26.7423 -37.1024
rtoes 23.027
lfemur -12.2577 -25.5524 -20.8351
ltibia 32.2738
lfoot -24.1542 14.047
ltoes -28.2102
126
root 8.82263 15.1461 42.2588 179.338 -9.59215 -177.928
lowerback 7.56808 2.79843 3.69866
upperback -4.62042 4.1033 -0.0227134
thorax -8.88942 1.73456 -2.70296
lowerneck -0.544467 17.7439 10.3832
upperneck 4.7855 23.844 -6.56105
head 3.49988 11.8792 -2.32606
rclavicle -8.23341e-014 -1.19271e-014
rhumerus -47.8564 12.3501 -96.714
rradius 36.6536
rwrist 20.3184
rhand -12.3326 -61.7145
rfingers 7.12502
rthumb -166.264 -88.7589
lclavicle -8.23341e-014 -1.19271e-014
lhumerus -42.4221 -9.15184 91.4492
lradius 36.7263
lwrist -19.8748
lhand -4.38731 -27.6862
lfingers 7.12502
lthumb 21.382 1.15405
rfemur -4.57553 18.1507 29.6826
rtibia 25.3376
rfoot -26.8736 -37.0892
rtoes 23.5941
lfemur -12.2233 -25.504 -20.85
ltibia 32.2692
lfoot -24.0765 14.0149
ltoes -28.5085
127
root 8.82255 15.1463 42.2582 179.377 -9.58431 -177.984
lowerback 7.59148 2.80098 3.61273
upperback -4.64972 4.09743 -0.0269264
thorax -8.94084 1.73448 -2.6613
lowerneck -0.598394 17.7722 10.4068
upperneck 4.9036 23.8767 -6.49231
head 3.54116 11.8957 -2.29593
rclavicle -6.29713e-014 -7.95139e-015
rhumerus -47.9583 12.5011 -96.8788
rradius 36.7669
rwrist 20.0336
rhand -11.6992 -60.9428
rfingers 7.12502
rthumb -165.653 -89.573
lclavicle -6.29713e-014 -7.95139e-015
lhumerus -42.4023 -8.97923 91.376
lradius 36.6609
lwrist -20.0896
lhand -3.72686 -27.9838
lfingers 7.12502
lthumb 22.0162 0.78314
rfemur -4.62239 18.1582 29.6049
rtibia 25.3842
rfoot -26.9714 -37.0284
rtoes 23.801
lfemur -12.2311 -25.4471 -20.896
ltibia 32.218
lfoot -23.9968 14.0004
ltoes -28.5508
128
root 8.8226 15.1435 42.2519 179.302 -9.83157 -177.989
lowerback 7.55173 2.69247 3.61002
upperback -4.60063 3.95095 -0.0168556
thorax -8.87457 1.6672 -2.62429
lowerneck -0.698878 17.8219 10.3199
upperneck 5.00297 23.9312 -6.3558
head 3.56453 11.9222 -2.23174
rclavicle -6.57294e-014 -7.95139e-015
rhumerus -48.0668 12.7261 -97.0989
rradius 36.8787
rwrist 19.7887
rhand -10.6537 -60.4202
rfingers 7.12502
rthumb -164.646 90.1698
lclavicle -6.57294e-014 -7.95139e-015
lhumerus -42.3504 -8.8716 91.2994
lradius 36.5747
lwrist -20.3282
lhand -3.33853 -28.4299
lfingers 7.12502
lthumb 22.389 0.292646
rfemur -4.47832 18.238 29.6956
rtibia 25.4369
rfoot -27.3594 -37.1937
rtoes 23.6344
lfemur -12.1154 -25.55 -20.935
ltibia 32.174
lfoot -24.071 13.7709
ltoes -27.9383
129
root 8.8194 15.148 42.2554 179.407 -9.27767 -178.039
lowerback 7.54733 2.88492 3.61193
upperback -4.62563 4.2078 -0.0293301
thorax -8.88092 1.79058 -2.67531
lowerneck -0.770262 17.8159 10.2185
upperneck 5.01527 23.9179 -6.32311
head 3.56275 11.9131 -2.20696
rclavicle 2.33199e-014 6.41081e-015
rhumerus -48.1044 12.8513 -97.2234
rradius 36.8834
rwrist 19.5996
rhand -10.1558 -60.7003
rfingers 7.12502
rthumb -164.166 270.073
lclavicle 2.33199e-014 6.41081e-015
lhumerus -42.3135 -9.00016 91.3839
lradius 36.4539
lwrist -20.4621
lhand -4.4814 -28.2768
lfingers 7.12502
lthumb 21.2916 0.573603
rfemur -4.71451 18.0616 29.4814
rtibia 25.4941
rfoot -26.7831 -36.6744
rtoes 22.2397
lfemur -12.1096 -25.4412 -21.0122
ltibia 32.1211
lfoot -24.1989 14.1695
ltoes -27.6243
130
root 8.8214 15.1452 42.2492 179.273 -9.81591 -178.126
lowerback 7.5695 2.71483 3.49512
upperback -4.56583 3.9697 -0.0170507
thorax -8.85294 1.68527 -2.56316
lowerneck -0.797489 17.7994 10.1838
upperneck 5.02173 23.8965 -6.34851
head 3.56656 11.9004 -2.20914
rclavicle -4.63293e-014 -4.12478e-015
rhumerus -48.1363 12.9364 -97.2927
rradius 36.877
rwrist 19.3456
rhand -10.1913 -60.8802
rfingers 7.12502
rthumb -164.201 270.255
lclavicle -4.63293e-014 -4.12478e-015
lhumerus -42.2824 -9.06138 91.4888
lradius 36.4707
lwrist -20.2682
lhand -4.95998 -27.947
lfingers 7.12502
lthumb 20.8319 0.954641
rfemur -4.4434 18.1679 29.5548
rtibia 25.516
rfoot -27.522 -37.1132
rtoes 23.0886
lfemur -11.9845 -25.4898 -21.1373
ltibia 32.0983
lfoot -24.1135 13.8216
ltoes -27.9475
131
root 8.82013 15.146 42.2532 179.319 -9.54883 -178.138
lowerback 7.641 2.78333 3.45017
upperback -4.6038 4.06245 0.0265461
thorax -8.93662 1.73087 -2.51082
lowerneck -0.81125 17.8195 10.1138
upperneck 5.02463 23.9229 -6.32438
head 3.56064 11.9125 -2.19198
rclavicle 4.06453e-014 1.07344e-014
rhumerus -48.2002 13.0476 -97.3103
rradius 36.9187
rwrist 19.1246
rhand -9.46385 -61.1121
rfingers 7.12502
rthumb -163.5 270.431
lclavicle 4.06453e-014 1.07344e-014
lhumerus -42.1542 -8.87148 91.4907
lradius 36.5612
lwrist -19.7047
lhand -3.32737 -28.1316
lfingers 7.12502
lthumb 22.3998 0.589694
rfemur -4.56677 18.1352 29.4534
rtibia 25.5311
rfoot -27.3038 -36.8685
rtoes 22.8495
lfemur -12.0037 -25.4527 -21.1452
ltibia 32.0721
lfoot -24.1716 13.9004
ltoes -27.2136
